<mxfile host="app.diagrams.net" modified="2020-04-07T12:18:16.555Z" agent="5.0 (Macintosh; Intel Mac OS X 10_12_6) AppleWebKit/537.36 (KHTML, like Gecko) Chrome/80.0.3987.149 Safari/537.36" etag="5aeprBRDTxQXQ2sfLf5H" version="12.9.7" type="github" pages="3">
  <diagram id="Yel9bFJ08EY7-uzpFVKn" name="UML类图">
    <mxGraphModel dx="1773" dy="467" grid="0" gridSize="10" guides="1" tooltips="1" connect="1" arrows="1" fold="1" page="1" pageScale="1" pageWidth="827" pageHeight="1169" math="0" shadow="0">
      <root>
        <mxCell id="0" />
        <mxCell id="1" parent="0" />
        <mxCell id="aag7jgjiEj0INCfYPcsb-23" value="mobility" style="swimlane;fontStyle=0;childLayout=stackLayout;horizontal=1;startSize=26;fillColor=none;horizontalStack=0;resizeParent=1;resizeParentMax=0;resizeLast=0;collapsible=1;marginBottom=0;" parent="1" vertex="1">
          <mxGeometry x="-624" y="21" width="140" height="156" as="geometry" />
        </mxCell>
        <mxCell id="aag7jgjiEj0INCfYPcsb-24" value="+ id: string" style="text;strokeColor=none;fillColor=none;align=left;verticalAlign=top;spacingLeft=4;spacingRight=4;overflow=hidden;rotatable=0;points=[[0,0.5],[1,0.5]];portConstraint=eastwest;" parent="aag7jgjiEj0INCfYPcsb-23" vertex="1">
          <mxGeometry y="26" width="140" height="26" as="geometry" />
        </mxCell>
        <mxCell id="aag7jgjiEj0INCfYPcsb-28" value="+ min_x: float" style="text;strokeColor=none;fillColor=none;align=left;verticalAlign=top;spacingLeft=4;spacingRight=4;overflow=hidden;rotatable=0;points=[[0,0.5],[1,0.5]];portConstraint=eastwest;" parent="aag7jgjiEj0INCfYPcsb-23" vertex="1">
          <mxGeometry y="52" width="140" height="26" as="geometry" />
        </mxCell>
        <mxCell id="aag7jgjiEj0INCfYPcsb-29" value="+ max_x: float" style="text;strokeColor=none;fillColor=none;align=left;verticalAlign=top;spacingLeft=4;spacingRight=4;overflow=hidden;rotatable=0;points=[[0,0.5],[1,0.5]];portConstraint=eastwest;" parent="aag7jgjiEj0INCfYPcsb-23" vertex="1">
          <mxGeometry y="78" width="140" height="26" as="geometry" />
        </mxCell>
        <mxCell id="aag7jgjiEj0INCfYPcsb-30" value="+ min_y: float" style="text;strokeColor=none;fillColor=none;align=left;verticalAlign=top;spacingLeft=4;spacingRight=4;overflow=hidden;rotatable=0;points=[[0,0.5],[1,0.5]];portConstraint=eastwest;" parent="aag7jgjiEj0INCfYPcsb-23" vertex="1">
          <mxGeometry y="104" width="140" height="26" as="geometry" />
        </mxCell>
        <mxCell id="aag7jgjiEj0INCfYPcsb-31" value="+ max_y: float" style="text;strokeColor=none;fillColor=none;align=left;verticalAlign=top;spacingLeft=4;spacingRight=4;overflow=hidden;rotatable=0;points=[[0,0.5],[1,0.5]];portConstraint=eastwest;" parent="aag7jgjiEj0INCfYPcsb-23" vertex="1">
          <mxGeometry y="130" width="140" height="26" as="geometry" />
        </mxCell>
        <mxCell id="aag7jgjiEj0INCfYPcsb-33" value="node" style="swimlane;fontStyle=1;align=center;verticalAlign=top;childLayout=stackLayout;horizontal=1;startSize=26;horizontalStack=0;resizeParent=1;resizeParentMax=0;resizeLast=0;collapsible=1;marginBottom=0;" parent="1" vertex="1">
          <mxGeometry x="-389" y="181" width="160" height="190" as="geometry" />
        </mxCell>
        <mxCell id="aag7jgjiEj0INCfYPcsb-34" value="+ id: string" style="text;strokeColor=none;fillColor=none;align=left;verticalAlign=top;spacingLeft=4;spacingRight=4;overflow=hidden;rotatable=0;points=[[0,0.5],[1,0.5]];portConstraint=eastwest;" parent="aag7jgjiEj0INCfYPcsb-33" vertex="1">
          <mxGeometry y="26" width="160" height="26" as="geometry" />
        </mxCell>
        <mxCell id="aag7jgjiEj0INCfYPcsb-39" value="+ state: boolean" style="text;strokeColor=none;fillColor=none;align=left;verticalAlign=top;spacingLeft=4;spacingRight=4;overflow=hidden;rotatable=0;points=[[0,0.5],[1,0.5]];portConstraint=eastwest;" parent="aag7jgjiEj0INCfYPcsb-33" vertex="1">
          <mxGeometry y="52" width="160" height="26" as="geometry" />
        </mxCell>
        <mxCell id="aag7jgjiEj0INCfYPcsb-37" value="+ pos_x: float" style="text;strokeColor=none;fillColor=none;align=left;verticalAlign=top;spacingLeft=4;spacingRight=4;overflow=hidden;rotatable=0;points=[[0,0.5],[1,0.5]];portConstraint=eastwest;" parent="aag7jgjiEj0INCfYPcsb-33" vertex="1">
          <mxGeometry y="78" width="160" height="26" as="geometry" />
        </mxCell>
        <mxCell id="aag7jgjiEj0INCfYPcsb-38" value="+ pos_y: float" style="text;strokeColor=none;fillColor=none;align=left;verticalAlign=top;spacingLeft=4;spacingRight=4;overflow=hidden;rotatable=0;points=[[0,0.5],[1,0.5]];portConstraint=eastwest;" parent="aag7jgjiEj0INCfYPcsb-33" vertex="1">
          <mxGeometry y="104" width="160" height="26" as="geometry" />
        </mxCell>
        <mxCell id="aag7jgjiEj0INCfYPcsb-35" value="" style="line;strokeWidth=1;fillColor=none;align=left;verticalAlign=middle;spacingTop=-1;spacingLeft=3;spacingRight=3;rotatable=0;labelPosition=right;points=[];portConstraint=eastwest;" parent="aag7jgjiEj0INCfYPcsb-33" vertex="1">
          <mxGeometry y="130" width="160" height="8" as="geometry" />
        </mxCell>
        <mxCell id="aag7jgjiEj0INCfYPcsb-36" value="+ getPosition()" style="text;strokeColor=none;fillColor=none;align=left;verticalAlign=top;spacingLeft=4;spacingRight=4;overflow=hidden;rotatable=0;points=[[0,0.5],[1,0.5]];portConstraint=eastwest;" parent="aag7jgjiEj0INCfYPcsb-33" vertex="1">
          <mxGeometry y="138" width="160" height="26" as="geometry" />
        </mxCell>
        <mxCell id="16RojRVPIBJZ2IgJxN3c-10" value="+ getState()" style="text;strokeColor=none;fillColor=none;align=left;verticalAlign=top;spacingLeft=4;spacingRight=4;overflow=hidden;rotatable=0;points=[[0,0.5],[1,0.5]];portConstraint=eastwest;" parent="aag7jgjiEj0INCfYPcsb-33" vertex="1">
          <mxGeometry y="164" width="160" height="26" as="geometry" />
        </mxCell>
        <mxCell id="16RojRVPIBJZ2IgJxN3c-45" style="edgeStyle=orthogonalEdgeStyle;rounded=0;orthogonalLoop=1;jettySize=auto;html=1;exitX=0.5;exitY=0;exitDx=0;exitDy=0;dashed=1;endArrow=none;endFill=0;endSize=10;" parent="1" edge="1">
          <mxGeometry relative="1" as="geometry">
            <mxPoint x="-307" y="436" as="targetPoint" />
            <Array as="points">
              <mxPoint x="-531" y="436" />
            </Array>
            <mxPoint x="-531" y="474" as="sourcePoint" />
          </mxGeometry>
        </mxCell>
        <mxCell id="bCanyIzfgJM5BBmZHwuw-3" value="UE" style="swimlane;fontStyle=1;align=center;verticalAlign=top;childLayout=stackLayout;horizontal=1;startSize=26;horizontalStack=0;resizeParent=1;resizeParentMax=0;resizeLast=0;collapsible=1;marginBottom=0;" parent="1" vertex="1">
          <mxGeometry x="-611" y="472" width="160" height="450" as="geometry" />
        </mxCell>
        <mxCell id="bCanyIzfgJM5BBmZHwuw-4" value="+ os: enumerate" style="text;strokeColor=none;fillColor=none;align=left;verticalAlign=top;spacingLeft=4;spacingRight=4;overflow=hidden;rotatable=0;points=[[0,0.5],[1,0.5]];portConstraint=eastwest;" parent="bCanyIzfgJM5BBmZHwuw-3" vertex="1">
          <mxGeometry y="26" width="160" height="26" as="geometry" />
        </mxCell>
        <mxCell id="bCanyIzfgJM5BBmZHwuw-8" value="+ memory: int" style="text;strokeColor=none;fillColor=none;align=left;verticalAlign=top;spacingLeft=4;spacingRight=4;overflow=hidden;rotatable=0;points=[[0,0.5],[1,0.5]];portConstraint=eastwest;" parent="bCanyIzfgJM5BBmZHwuw-3" vertex="1">
          <mxGeometry y="52" width="160" height="26" as="geometry" />
        </mxCell>
        <mxCell id="bCanyIzfgJM5BBmZHwuw-9" value="+ processorNum: int" style="text;strokeColor=none;fillColor=none;align=left;verticalAlign=top;spacingLeft=4;spacingRight=4;overflow=hidden;rotatable=0;points=[[0,0.5],[1,0.5]];portConstraint=eastwest;" parent="bCanyIzfgJM5BBmZHwuw-3" vertex="1">
          <mxGeometry y="78" width="160" height="26" as="geometry" />
        </mxCell>
        <mxCell id="bCanyIzfgJM5BBmZHwuw-28" value="+ storage: int" style="text;strokeColor=none;fillColor=none;align=left;verticalAlign=top;spacingLeft=4;spacingRight=4;overflow=hidden;rotatable=0;points=[[0,0.5],[1,0.5]];portConstraint=eastwest;" parent="bCanyIzfgJM5BBmZHwuw-3" vertex="1">
          <mxGeometry y="104" width="160" height="26" as="geometry" />
        </mxCell>
        <mxCell id="bCanyIzfgJM5BBmZHwuw-12" value="+ batteryLife: int" style="text;strokeColor=none;fillColor=none;align=left;verticalAlign=top;spacingLeft=4;spacingRight=4;overflow=hidden;rotatable=0;points=[[0,0.5],[1,0.5]];portConstraint=eastwest;" parent="bCanyIzfgJM5BBmZHwuw-3" vertex="1">
          <mxGeometry y="130" width="160" height="26" as="geometry" />
        </mxCell>
        <mxCell id="pegrjDCT9gbsu0cx4D-K-2" value="+ lifetime: int" style="text;strokeColor=none;fillColor=none;align=left;verticalAlign=top;spacingLeft=4;spacingRight=4;overflow=hidden;rotatable=0;points=[[0,0.5],[1,0.5]];portConstraint=eastwest;" parent="bCanyIzfgJM5BBmZHwuw-3" vertex="1">
          <mxGeometry y="156" width="160" height="26" as="geometry" />
        </mxCell>
        <mxCell id="bCanyIzfgJM5BBmZHwuw-5" value="" style="line;strokeWidth=1;fillColor=none;align=left;verticalAlign=middle;spacingTop=-1;spacingLeft=3;spacingRight=3;rotatable=0;labelPosition=right;points=[];portConstraint=eastwest;" parent="bCanyIzfgJM5BBmZHwuw-3" vertex="1">
          <mxGeometry y="182" width="160" height="8" as="geometry" />
        </mxCell>
        <mxCell id="bCanyIzfgJM5BBmZHwuw-6" value="+ updateOS()" style="text;strokeColor=none;fillColor=none;align=left;verticalAlign=top;spacingLeft=4;spacingRight=4;overflow=hidden;rotatable=0;points=[[0,0.5],[1,0.5]];portConstraint=eastwest;" parent="bCanyIzfgJM5BBmZHwuw-3" vertex="1">
          <mxGeometry y="190" width="160" height="26" as="geometry" />
        </mxCell>
        <mxCell id="16RojRVPIBJZ2IgJxN3c-8" value="+ initialize()" style="text;strokeColor=none;fillColor=none;align=left;verticalAlign=top;spacingLeft=4;spacingRight=4;overflow=hidden;rotatable=0;points=[[0,0.5],[1,0.5]];portConstraint=eastwest;" parent="bCanyIzfgJM5BBmZHwuw-3" vertex="1">
          <mxGeometry y="216" width="160" height="26" as="geometry" />
        </mxCell>
        <mxCell id="bCanyIzfgJM5BBmZHwuw-7" value="+ installAPPs()" style="text;strokeColor=none;fillColor=none;align=left;verticalAlign=top;spacingLeft=4;spacingRight=4;overflow=hidden;rotatable=0;points=[[0,0.5],[1,0.5]];portConstraint=eastwest;" parent="bCanyIzfgJM5BBmZHwuw-3" vertex="1">
          <mxGeometry y="242" width="160" height="26" as="geometry" />
        </mxCell>
        <mxCell id="bCanyIzfgJM5BBmZHwuw-22" value="+ scanAPs()" style="text;strokeColor=none;fillColor=none;align=left;verticalAlign=top;spacingLeft=4;spacingRight=4;overflow=hidden;rotatable=0;points=[[0,0.5],[1,0.5]];portConstraint=eastwest;" parent="bCanyIzfgJM5BBmZHwuw-3" vertex="1">
          <mxGeometry y="268" width="160" height="26" as="geometry" />
        </mxCell>
        <mxCell id="bCanyIzfgJM5BBmZHwuw-23" value="+ selectAP()" style="text;strokeColor=none;fillColor=none;align=left;verticalAlign=top;spacingLeft=4;spacingRight=4;overflow=hidden;rotatable=0;points=[[0,0.5],[1,0.5]];portConstraint=eastwest;" parent="bCanyIzfgJM5BBmZHwuw-3" vertex="1">
          <mxGeometry y="294" width="160" height="26" as="geometry" />
        </mxCell>
        <mxCell id="bCanyIzfgJM5BBmZHwuw-25" value="+ charging()" style="text;strokeColor=none;fillColor=none;align=left;verticalAlign=top;spacingLeft=4;spacingRight=4;overflow=hidden;rotatable=0;points=[[0,0.5],[1,0.5]];portConstraint=eastwest;" parent="bCanyIzfgJM5BBmZHwuw-3" vertex="1">
          <mxGeometry y="320" width="160" height="26" as="geometry" />
        </mxCell>
        <mxCell id="bCanyIzfgJM5BBmZHwuw-29" value="+ changeState()" style="text;strokeColor=none;fillColor=none;align=left;verticalAlign=top;spacingLeft=4;spacingRight=4;overflow=hidden;rotatable=0;points=[[0,0.5],[1,0.5]];portConstraint=eastwest;" parent="bCanyIzfgJM5BBmZHwuw-3" vertex="1">
          <mxGeometry y="346" width="160" height="26" as="geometry" />
        </mxCell>
        <mxCell id="bCanyIzfgJM5BBmZHwuw-31" value="+ mobilieData()" style="text;strokeColor=none;fillColor=none;align=left;verticalAlign=top;spacingLeft=4;spacingRight=4;overflow=hidden;rotatable=0;points=[[0,0.5],[1,0.5]];portConstraint=eastwest;" parent="bCanyIzfgJM5BBmZHwuw-3" vertex="1">
          <mxGeometry y="372" width="160" height="26" as="geometry" />
        </mxCell>
        <mxCell id="bCanyIzfgJM5BBmZHwuw-33" value="+ wlan()" style="text;strokeColor=none;fillColor=none;align=left;verticalAlign=top;spacingLeft=4;spacingRight=4;overflow=hidden;rotatable=0;points=[[0,0.5],[1,0.5]];portConstraint=eastwest;" parent="bCanyIzfgJM5BBmZHwuw-3" vertex="1">
          <mxGeometry y="398" width="160" height="26" as="geometry" />
        </mxCell>
        <mxCell id="bCanyIzfgJM5BBmZHwuw-38" value="+ flightMode()" style="text;strokeColor=none;fillColor=none;align=left;verticalAlign=top;spacingLeft=4;spacingRight=4;overflow=hidden;rotatable=0;points=[[0,0.5],[1,0.5]];portConstraint=eastwest;" parent="bCanyIzfgJM5BBmZHwuw-3" vertex="1">
          <mxGeometry y="424" width="160" height="26" as="geometry" />
        </mxCell>
        <mxCell id="bCanyIzfgJM5BBmZHwuw-108" style="edgeStyle=orthogonalEdgeStyle;rounded=0;orthogonalLoop=1;jettySize=auto;html=1;exitX=0.5;exitY=0;exitDx=0;exitDy=0;endArrow=block;endFill=0;endSize=10;dashed=1;" parent="1" source="bCanyIzfgJM5BBmZHwuw-14" edge="1">
          <mxGeometry relative="1" as="geometry">
            <mxPoint x="-308" y="376" as="targetPoint" />
            <Array as="points">
              <mxPoint x="-173" y="436" />
              <mxPoint x="-308" y="436" />
            </Array>
          </mxGeometry>
        </mxCell>
        <mxCell id="bCanyIzfgJM5BBmZHwuw-14" value="AP" style="swimlane;fontStyle=1;align=center;verticalAlign=top;childLayout=stackLayout;horizontal=1;startSize=26;horizontalStack=0;resizeParent=1;resizeParentMax=0;resizeLast=0;collapsible=1;marginBottom=0;" parent="1" vertex="1">
          <mxGeometry x="-253" y="472" width="160" height="164" as="geometry" />
        </mxCell>
        <mxCell id="bCanyIzfgJM5BBmZHwuw-15" value="+ os: enumerate" style="text;strokeColor=none;fillColor=none;align=left;verticalAlign=top;spacingLeft=4;spacingRight=4;overflow=hidden;rotatable=0;points=[[0,0.5],[1,0.5]];portConstraint=eastwest;" parent="bCanyIzfgJM5BBmZHwuw-14" vertex="1">
          <mxGeometry y="26" width="160" height="26" as="geometry" />
        </mxCell>
        <mxCell id="bCanyIzfgJM5BBmZHwuw-128" value="+ protocol: enumerate" style="text;strokeColor=none;fillColor=none;align=left;verticalAlign=top;spacingLeft=4;spacingRight=4;overflow=hidden;rotatable=0;points=[[0,0.5],[1,0.5]];portConstraint=eastwest;" parent="bCanyIzfgJM5BBmZHwuw-14" vertex="1">
          <mxGeometry y="52" width="160" height="26" as="geometry" />
        </mxCell>
        <mxCell id="bCanyIzfgJM5BBmZHwuw-103" value="+ power: int" style="text;strokeColor=none;fillColor=none;align=left;verticalAlign=top;spacingLeft=4;spacingRight=4;overflow=hidden;rotatable=0;points=[[0,0.5],[1,0.5]];portConstraint=eastwest;" parent="bCanyIzfgJM5BBmZHwuw-14" vertex="1">
          <mxGeometry y="78" width="160" height="26" as="geometry" />
        </mxCell>
        <mxCell id="bCanyIzfgJM5BBmZHwuw-19" value="" style="line;strokeWidth=1;fillColor=none;align=left;verticalAlign=middle;spacingTop=-1;spacingLeft=3;spacingRight=3;rotatable=0;labelPosition=right;points=[];portConstraint=eastwest;" parent="bCanyIzfgJM5BBmZHwuw-14" vertex="1">
          <mxGeometry y="104" width="160" height="8" as="geometry" />
        </mxCell>
        <mxCell id="bCanyIzfgJM5BBmZHwuw-20" value="+ updateOS()" style="text;strokeColor=none;fillColor=none;align=left;verticalAlign=top;spacingLeft=4;spacingRight=4;overflow=hidden;rotatable=0;points=[[0,0.5],[1,0.5]];portConstraint=eastwest;" parent="bCanyIzfgJM5BBmZHwuw-14" vertex="1">
          <mxGeometry y="112" width="160" height="26" as="geometry" />
        </mxCell>
        <mxCell id="16RojRVPIBJZ2IgJxN3c-20" value="+ initialize()" style="text;strokeColor=none;fillColor=none;align=left;verticalAlign=top;spacingLeft=4;spacingRight=4;overflow=hidden;rotatable=0;points=[[0,0.5],[1,0.5]];portConstraint=eastwest;" parent="bCanyIzfgJM5BBmZHwuw-14" vertex="1">
          <mxGeometry y="138" width="160" height="26" as="geometry" />
        </mxCell>
        <mxCell id="bCanyIzfgJM5BBmZHwuw-41" value="connection" style="swimlane;fontStyle=0;childLayout=stackLayout;horizontal=1;startSize=26;fillColor=none;horizontalStack=0;resizeParent=1;resizeParentMax=0;resizeLast=0;collapsible=1;marginBottom=0;" parent="1" vertex="1">
          <mxGeometry x="-120" y="52" width="140" height="104" as="geometry" />
        </mxCell>
        <mxCell id="bCanyIzfgJM5BBmZHwuw-42" value="+ id : string" style="text;strokeColor=none;fillColor=none;align=left;verticalAlign=top;spacingLeft=4;spacingRight=4;overflow=hidden;rotatable=0;points=[[0,0.5],[1,0.5]];portConstraint=eastwest;" parent="bCanyIzfgJM5BBmZHwuw-41" vertex="1">
          <mxGeometry y="26" width="140" height="26" as="geometry" />
        </mxCell>
        <mxCell id="bCanyIzfgJM5BBmZHwuw-44" value="+ from: node" style="text;strokeColor=none;fillColor=none;align=left;verticalAlign=top;spacingLeft=4;spacingRight=4;overflow=hidden;rotatable=0;points=[[0,0.5],[1,0.5]];portConstraint=eastwest;" parent="bCanyIzfgJM5BBmZHwuw-41" vertex="1">
          <mxGeometry y="52" width="140" height="26" as="geometry" />
        </mxCell>
        <mxCell id="bCanyIzfgJM5BBmZHwuw-45" value="+ to: node" style="text;strokeColor=none;fillColor=none;align=left;verticalAlign=top;spacingLeft=4;spacingRight=4;overflow=hidden;rotatable=0;points=[[0,0.5],[1,0.5]];portConstraint=eastwest;" parent="bCanyIzfgJM5BBmZHwuw-41" vertex="1">
          <mxGeometry y="78" width="140" height="26" as="geometry" />
        </mxCell>
        <mxCell id="bCanyIzfgJM5BBmZHwuw-131" style="edgeStyle=orthogonalEdgeStyle;rounded=0;orthogonalLoop=1;jettySize=auto;html=1;exitX=0;exitY=0.25;exitDx=0;exitDy=0;entryX=1.021;entryY=0.269;entryDx=0;entryDy=0;entryPerimeter=0;dashed=1;endArrow=block;endFill=0;endSize=10;" parent="1" source="bCanyIzfgJM5BBmZHwuw-47" target="bCanyIzfgJM5BBmZHwuw-44" edge="1">
          <mxGeometry relative="1" as="geometry" />
        </mxCell>
        <mxCell id="bCanyIzfgJM5BBmZHwuw-47" value="wiredLink" style="swimlane;fontStyle=1;childLayout=stackLayout;horizontal=1;startSize=26;fillColor=none;horizontalStack=0;resizeParent=1;resizeParentMax=0;resizeLast=0;collapsible=1;marginBottom=0;" parent="1" vertex="1">
          <mxGeometry x="114" y="25" width="140" height="52" as="geometry" />
        </mxCell>
        <mxCell id="bCanyIzfgJM5BBmZHwuw-48" value="+ delay: int" style="text;strokeColor=none;fillColor=none;align=left;verticalAlign=top;spacingLeft=4;spacingRight=4;overflow=hidden;rotatable=0;points=[[0,0.5],[1,0.5]];portConstraint=eastwest;" parent="bCanyIzfgJM5BBmZHwuw-47" vertex="1">
          <mxGeometry y="26" width="140" height="26" as="geometry" />
        </mxCell>
        <mxCell id="bCanyIzfgJM5BBmZHwuw-74" style="edgeStyle=orthogonalEdgeStyle;rounded=0;orthogonalLoop=1;jettySize=auto;html=1;exitX=0;exitY=0.5;exitDx=0;exitDy=0;entryX=1;entryY=0.5;entryDx=0;entryDy=0;endArrow=block;endFill=0;endSize=10;" parent="1" source="aag7jgjiEj0INCfYPcsb-34" target="aag7jgjiEj0INCfYPcsb-24" edge="1">
          <mxGeometry relative="1" as="geometry" />
        </mxCell>
        <mxCell id="HQizx2PiDJFyjuPkQ8Zz-9" style="edgeStyle=orthogonalEdgeStyle;rounded=0;orthogonalLoop=1;jettySize=auto;html=1;dashed=1;endArrow=none;endFill=0;exitX=0;exitY=0.5;exitDx=0;exitDy=0;" parent="1" source="bCanyIzfgJM5BBmZHwuw-89" edge="1">
          <mxGeometry relative="1" as="geometry">
            <mxPoint x="66.66673278808594" y="85.68057250976562" as="targetPoint" />
            <mxPoint x="97" y="306" as="sourcePoint" />
          </mxGeometry>
        </mxCell>
        <mxCell id="bCanyIzfgJM5BBmZHwuw-88" value="communication" style="swimlane;fontStyle=1;childLayout=stackLayout;horizontal=1;startSize=26;fillColor=none;horizontalStack=0;resizeParent=1;resizeParentMax=0;resizeLast=0;collapsible=1;marginBottom=0;" parent="1" vertex="1">
          <mxGeometry x="114" y="266" width="140" height="52" as="geometry" />
        </mxCell>
        <mxCell id="bCanyIzfgJM5BBmZHwuw-89" value="+ getDelay()" style="text;strokeColor=none;fillColor=none;align=left;verticalAlign=top;spacingLeft=4;spacingRight=4;overflow=hidden;rotatable=0;points=[[0,0.5],[1,0.5]];portConstraint=eastwest;" parent="bCanyIzfgJM5BBmZHwuw-88" vertex="1">
          <mxGeometry y="26" width="140" height="26" as="geometry" />
        </mxCell>
        <mxCell id="bCanyIzfgJM5BBmZHwuw-94" value="server" style="swimlane;fontStyle=1;align=center;verticalAlign=top;childLayout=stackLayout;horizontal=1;startSize=26;horizontalStack=0;resizeParent=1;resizeParentMax=0;resizeLast=0;collapsible=1;marginBottom=0;" parent="1" vertex="1">
          <mxGeometry x="-432" y="472" width="160" height="216" as="geometry" />
        </mxCell>
        <mxCell id="bCanyIzfgJM5BBmZHwuw-95" value="+ os: enumerate" style="text;strokeColor=none;fillColor=none;align=left;verticalAlign=top;spacingLeft=4;spacingRight=4;overflow=hidden;rotatable=0;points=[[0,0.5],[1,0.5]];portConstraint=eastwest;" parent="bCanyIzfgJM5BBmZHwuw-94" vertex="1">
          <mxGeometry y="26" width="160" height="26" as="geometry" />
        </mxCell>
        <mxCell id="bCanyIzfgJM5BBmZHwuw-96" value="+ memory: int" style="text;strokeColor=none;fillColor=none;align=left;verticalAlign=top;spacingLeft=4;spacingRight=4;overflow=hidden;rotatable=0;points=[[0,0.5],[1,0.5]];portConstraint=eastwest;" parent="bCanyIzfgJM5BBmZHwuw-94" vertex="1">
          <mxGeometry y="52" width="160" height="26" as="geometry" />
        </mxCell>
        <mxCell id="bCanyIzfgJM5BBmZHwuw-97" value="+ processorNum: int" style="text;strokeColor=none;fillColor=none;align=left;verticalAlign=top;spacingLeft=4;spacingRight=4;overflow=hidden;rotatable=0;points=[[0,0.5],[1,0.5]];portConstraint=eastwest;" parent="bCanyIzfgJM5BBmZHwuw-94" vertex="1">
          <mxGeometry y="78" width="160" height="26" as="geometry" />
        </mxCell>
        <mxCell id="bCanyIzfgJM5BBmZHwuw-98" value="+ storage: int" style="text;strokeColor=none;fillColor=none;align=left;verticalAlign=top;spacingLeft=4;spacingRight=4;overflow=hidden;rotatable=0;points=[[0,0.5],[1,0.5]];portConstraint=eastwest;" parent="bCanyIzfgJM5BBmZHwuw-94" vertex="1">
          <mxGeometry y="104" width="160" height="26" as="geometry" />
        </mxCell>
        <mxCell id="bCanyIzfgJM5BBmZHwuw-99" value="" style="line;strokeWidth=1;fillColor=none;align=left;verticalAlign=middle;spacingTop=-1;spacingLeft=3;spacingRight=3;rotatable=0;labelPosition=right;points=[];portConstraint=eastwest;" parent="bCanyIzfgJM5BBmZHwuw-94" vertex="1">
          <mxGeometry y="130" width="160" height="8" as="geometry" />
        </mxCell>
        <mxCell id="bCanyIzfgJM5BBmZHwuw-100" value="+ updateOS()" style="text;strokeColor=none;fillColor=none;align=left;verticalAlign=top;spacingLeft=4;spacingRight=4;overflow=hidden;rotatable=0;points=[[0,0.5],[1,0.5]];portConstraint=eastwest;" parent="bCanyIzfgJM5BBmZHwuw-94" vertex="1">
          <mxGeometry y="138" width="160" height="26" as="geometry" />
        </mxCell>
        <mxCell id="16RojRVPIBJZ2IgJxN3c-12" value="+ initialize()" style="text;strokeColor=none;fillColor=none;align=left;verticalAlign=top;spacingLeft=4;spacingRight=4;overflow=hidden;rotatable=0;points=[[0,0.5],[1,0.5]];portConstraint=eastwest;" parent="bCanyIzfgJM5BBmZHwuw-94" vertex="1">
          <mxGeometry y="164" width="160" height="26" as="geometry" />
        </mxCell>
        <mxCell id="bCanyIzfgJM5BBmZHwuw-101" value="+ installAPP()" style="text;strokeColor=none;fillColor=none;align=left;verticalAlign=top;spacingLeft=4;spacingRight=4;overflow=hidden;rotatable=0;points=[[0,0.5],[1,0.5]];portConstraint=eastwest;" parent="bCanyIzfgJM5BBmZHwuw-94" vertex="1">
          <mxGeometry y="190" width="160" height="26" as="geometry" />
        </mxCell>
        <mxCell id="bCanyIzfgJM5BBmZHwuw-111" style="edgeStyle=orthogonalEdgeStyle;rounded=0;orthogonalLoop=1;jettySize=auto;html=1;exitX=1.01;exitY=0.791;exitDx=0;exitDy=0;entryX=0;entryY=0.5;entryDx=0;entryDy=0;dashed=1;endArrow=openThin;endFill=0;endSize=10;exitPerimeter=0;" parent="1" target="bCanyIzfgJM5BBmZHwuw-42" edge="1">
          <mxGeometry relative="1" as="geometry">
            <mxPoint x="-242.5999999999999" y="91.56600000000003" as="sourcePoint" />
          </mxGeometry>
        </mxCell>
        <mxCell id="eCah9TPHFTPJ59rXQ0RR-4" style="edgeStyle=orthogonalEdgeStyle;rounded=0;orthogonalLoop=1;jettySize=auto;html=1;exitX=0.5;exitY=0;exitDx=0;exitDy=0;dashed=1;endArrow=none;endFill=0;" parent="1" edge="1">
          <mxGeometry relative="1" as="geometry">
            <mxPoint x="10" y="436" as="targetPoint" />
            <mxPoint x="184" y="475" as="sourcePoint" />
            <Array as="points">
              <mxPoint x="184" y="436" />
            </Array>
          </mxGeometry>
        </mxCell>
        <mxCell id="bCanyIzfgJM5BBmZHwuw-116" value="Internet" style="swimlane;fontStyle=0;childLayout=stackLayout;horizontal=1;startSize=26;fillColor=none;horizontalStack=0;resizeParent=1;resizeParentMax=0;resizeLast=0;collapsible=1;marginBottom=0;" parent="1" vertex="1">
          <mxGeometry x="114" y="472" width="140" height="52" as="geometry" />
        </mxCell>
        <mxCell id="16RojRVPIBJZ2IgJxN3c-2" value="runTime" style="swimlane;fontStyle=0;childLayout=stackLayout;horizontal=1;startSize=26;fillColor=none;horizontalStack=0;resizeParent=1;resizeParentMax=0;resizeLast=0;collapsible=1;marginBottom=0;" parent="1" vertex="1">
          <mxGeometry x="-624" y="259" width="140" height="130" as="geometry" />
        </mxCell>
        <mxCell id="16RojRVPIBJZ2IgJxN3c-3" value="+ id: string" style="text;strokeColor=none;fillColor=none;align=left;verticalAlign=top;spacingLeft=4;spacingRight=4;overflow=hidden;rotatable=0;points=[[0,0.5],[1,0.5]];portConstraint=eastwest;" parent="16RojRVPIBJZ2IgJxN3c-2" vertex="1">
          <mxGeometry y="26" width="140" height="26" as="geometry" />
        </mxCell>
        <mxCell id="16RojRVPIBJZ2IgJxN3c-4" value="+ startDate: tuple" style="text;strokeColor=none;fillColor=none;align=left;verticalAlign=top;spacingLeft=4;spacingRight=4;overflow=hidden;rotatable=0;points=[[0,0.5],[1,0.5]];portConstraint=eastwest;" parent="16RojRVPIBJZ2IgJxN3c-2" vertex="1">
          <mxGeometry y="52" width="140" height="26" as="geometry" />
        </mxCell>
        <mxCell id="16RojRVPIBJZ2IgJxN3c-5" value="+ startTime: tuple" style="text;strokeColor=none;fillColor=none;align=left;verticalAlign=top;spacingLeft=4;spacingRight=4;overflow=hidden;rotatable=0;points=[[0,0.5],[1,0.5]];portConstraint=eastwest;" parent="16RojRVPIBJZ2IgJxN3c-2" vertex="1">
          <mxGeometry y="78" width="140" height="26" as="geometry" />
        </mxCell>
        <mxCell id="16RojRVPIBJZ2IgJxN3c-7" value="+ duration: tuple" style="text;strokeColor=none;fillColor=none;align=left;verticalAlign=top;spacingLeft=4;spacingRight=4;overflow=hidden;rotatable=0;points=[[0,0.5],[1,0.5]];portConstraint=eastwest;" parent="16RojRVPIBJZ2IgJxN3c-2" vertex="1">
          <mxGeometry y="104" width="140" height="26" as="geometry" />
        </mxCell>
        <mxCell id="eCah9TPHFTPJ59rXQ0RR-2" style="edgeStyle=orthogonalEdgeStyle;rounded=0;orthogonalLoop=1;jettySize=auto;html=1;exitX=0.5;exitY=0;exitDx=0;exitDy=0;dashed=1;endArrow=none;endFill=0;" parent="1" edge="1">
          <mxGeometry relative="1" as="geometry">
            <mxPoint x="-173" y="436" as="targetPoint" />
            <mxPoint x="10" y="473" as="sourcePoint" />
            <Array as="points">
              <mxPoint x="10" y="436" />
            </Array>
          </mxGeometry>
        </mxCell>
        <mxCell id="bCanyIzfgJM5BBmZHwuw-119" value="router" style="swimlane;fontStyle=1;align=center;verticalAlign=top;childLayout=stackLayout;horizontal=1;startSize=26;horizontalStack=0;resizeParent=1;resizeParentMax=0;resizeLast=0;collapsible=1;marginBottom=0;" parent="1" vertex="1">
          <mxGeometry x="-70" y="472" width="160" height="164" as="geometry" />
        </mxCell>
        <mxCell id="bCanyIzfgJM5BBmZHwuw-120" value="+ os: enumerate" style="text;strokeColor=none;fillColor=none;align=left;verticalAlign=top;spacingLeft=4;spacingRight=4;overflow=hidden;rotatable=0;points=[[0,0.5],[1,0.5]];portConstraint=eastwest;" parent="bCanyIzfgJM5BBmZHwuw-119" vertex="1">
          <mxGeometry y="26" width="160" height="26" as="geometry" />
        </mxCell>
        <mxCell id="bCanyIzfgJM5BBmZHwuw-121" value="+ protocol: enumerate" style="text;strokeColor=none;fillColor=none;align=left;verticalAlign=top;spacingLeft=4;spacingRight=4;overflow=hidden;rotatable=0;points=[[0,0.5],[1,0.5]];portConstraint=eastwest;" parent="bCanyIzfgJM5BBmZHwuw-119" vertex="1">
          <mxGeometry y="52" width="160" height="26" as="geometry" />
        </mxCell>
        <mxCell id="bCanyIzfgJM5BBmZHwuw-122" value="" style="line;strokeWidth=1;fillColor=none;align=left;verticalAlign=middle;spacingTop=-1;spacingLeft=3;spacingRight=3;rotatable=0;labelPosition=right;points=[];portConstraint=eastwest;" parent="bCanyIzfgJM5BBmZHwuw-119" vertex="1">
          <mxGeometry y="78" width="160" height="8" as="geometry" />
        </mxCell>
        <mxCell id="bCanyIzfgJM5BBmZHwuw-123" value="+ updateOS()" style="text;strokeColor=none;fillColor=none;align=left;verticalAlign=top;spacingLeft=4;spacingRight=4;overflow=hidden;rotatable=0;points=[[0,0.5],[1,0.5]];portConstraint=eastwest;" parent="bCanyIzfgJM5BBmZHwuw-119" vertex="1">
          <mxGeometry y="86" width="160" height="26" as="geometry" />
        </mxCell>
        <mxCell id="16RojRVPIBJZ2IgJxN3c-13" value="+ initialize()" style="text;strokeColor=none;fillColor=none;align=left;verticalAlign=top;spacingLeft=4;spacingRight=4;overflow=hidden;rotatable=0;points=[[0,0.5],[1,0.5]];portConstraint=eastwest;" parent="bCanyIzfgJM5BBmZHwuw-119" vertex="1">
          <mxGeometry y="112" width="160" height="26" as="geometry" />
        </mxCell>
        <mxCell id="16RojRVPIBJZ2IgJxN3c-46" value="+ addRules()" style="text;strokeColor=none;fillColor=none;align=left;verticalAlign=top;spacingLeft=4;spacingRight=4;overflow=hidden;rotatable=0;points=[[0,0.5],[1,0.5]];portConstraint=eastwest;" parent="bCanyIzfgJM5BBmZHwuw-119" vertex="1">
          <mxGeometry y="138" width="160" height="26" as="geometry" />
        </mxCell>
        <mxCell id="16RojRVPIBJZ2IgJxN3c-22" value="&lt;font style=&quot;font-size: 17px&quot;&gt;&lt;b&gt;. . .&lt;/b&gt;&lt;/font&gt;" style="text;html=1;strokeColor=none;fillColor=none;align=center;verticalAlign=middle;whiteSpace=wrap;rounded=0;" parent="1" vertex="1">
          <mxGeometry x="289" y="495" width="40" height="20" as="geometry" />
        </mxCell>
        <mxCell id="16RojRVPIBJZ2IgJxN3c-39" style="edgeStyle=orthogonalEdgeStyle;rounded=0;orthogonalLoop=1;jettySize=auto;html=1;exitX=1;exitY=0.75;exitDx=0;exitDy=0;dashed=1;endArrow=none;endFill=0;endSize=10;" parent="1" source="16RojRVPIBJZ2IgJxN3c-24" edge="1">
          <mxGeometry relative="1" as="geometry">
            <mxPoint x="-652" y="221" as="targetPoint" />
          </mxGeometry>
        </mxCell>
        <mxCell id="16RojRVPIBJZ2IgJxN3c-24" value="GaussMarkov" style="swimlane;fontStyle=0;childLayout=stackLayout;horizontal=1;startSize=26;fillColor=none;horizontalStack=0;resizeParent=1;resizeParentMax=0;resizeLast=0;collapsible=1;marginBottom=0;" parent="1" vertex="1">
          <mxGeometry x="-821" y="298" width="140" height="52" as="geometry" />
        </mxCell>
        <mxCell id="16RojRVPIBJZ2IgJxN3c-28" value="RandomWalk" style="swimlane;fontStyle=0;childLayout=stackLayout;horizontal=1;startSize=26;fillColor=none;horizontalStack=0;resizeParent=1;resizeParentMax=0;resizeLast=0;collapsible=1;marginBottom=0;" parent="1" vertex="1">
          <mxGeometry x="-814" y="25" width="140" height="78" as="geometry" />
        </mxCell>
        <mxCell id="16RojRVPIBJZ2IgJxN3c-29" value="+ constantDistance: float" style="text;strokeColor=none;fillColor=none;align=left;verticalAlign=top;spacingLeft=4;spacingRight=4;overflow=hidden;rotatable=0;points=[[0,0.5],[1,0.5]];portConstraint=eastwest;" parent="16RojRVPIBJZ2IgJxN3c-28" vertex="1">
          <mxGeometry y="26" width="140" height="26" as="geometry" />
        </mxCell>
        <mxCell id="16RojRVPIBJZ2IgJxN3c-30" value="+ constatVelocity: float" style="text;strokeColor=none;fillColor=none;align=left;verticalAlign=top;spacingLeft=4;spacingRight=4;overflow=hidden;rotatable=0;points=[[0,0.5],[1,0.5]];portConstraint=eastwest;" parent="16RojRVPIBJZ2IgJxN3c-28" vertex="1">
          <mxGeometry y="52" width="140" height="26" as="geometry" />
        </mxCell>
        <mxCell id="16RojRVPIBJZ2IgJxN3c-32" value="RandomWaypoint" style="swimlane;fontStyle=0;childLayout=stackLayout;horizontal=1;startSize=26;fillColor=none;horizontalStack=0;resizeParent=1;resizeParentMax=0;resizeLast=0;collapsible=1;marginBottom=0;" parent="1" vertex="1">
          <mxGeometry x="-818" y="155" width="140" height="104" as="geometry" />
        </mxCell>
        <mxCell id="16RojRVPIBJZ2IgJxN3c-33" value="+ min_speed: float" style="text;strokeColor=none;fillColor=none;align=left;verticalAlign=top;spacingLeft=4;spacingRight=4;overflow=hidden;rotatable=0;points=[[0,0.5],[1,0.5]];portConstraint=eastwest;" parent="16RojRVPIBJZ2IgJxN3c-32" vertex="1">
          <mxGeometry y="26" width="140" height="26" as="geometry" />
        </mxCell>
        <mxCell id="16RojRVPIBJZ2IgJxN3c-34" value="+ max_speed: float" style="text;strokeColor=none;fillColor=none;align=left;verticalAlign=top;spacingLeft=4;spacingRight=4;overflow=hidden;rotatable=0;points=[[0,0.5],[1,0.5]];portConstraint=eastwest;" parent="16RojRVPIBJZ2IgJxN3c-32" vertex="1">
          <mxGeometry y="52" width="140" height="26" as="geometry" />
        </mxCell>
        <mxCell id="16RojRVPIBJZ2IgJxN3c-35" value="+ pauseTime: float" style="text;strokeColor=none;fillColor=none;align=left;verticalAlign=top;spacingLeft=4;spacingRight=4;overflow=hidden;rotatable=0;points=[[0,0.5],[1,0.5]];portConstraint=eastwest;" parent="16RojRVPIBJZ2IgJxN3c-32" vertex="1">
          <mxGeometry y="78" width="140" height="26" as="geometry" />
        </mxCell>
        <mxCell id="16RojRVPIBJZ2IgJxN3c-37" style="edgeStyle=orthogonalEdgeStyle;rounded=0;orthogonalLoop=1;jettySize=auto;html=1;exitX=1;exitY=0.5;exitDx=0;exitDy=0;entryX=0;entryY=0.5;entryDx=0;entryDy=0;dashed=1;endArrow=block;endFill=0;endSize=10;" parent="1" source="16RojRVPIBJZ2IgJxN3c-29" target="aag7jgjiEj0INCfYPcsb-29" edge="1">
          <mxGeometry relative="1" as="geometry" />
        </mxCell>
        <mxCell id="16RojRVPIBJZ2IgJxN3c-38" style="edgeStyle=orthogonalEdgeStyle;rounded=0;orthogonalLoop=1;jettySize=auto;html=1;exitX=1;exitY=0.5;exitDx=0;exitDy=0;dashed=1;endArrow=none;endFill=0;endSize=10;" parent="1" source="16RojRVPIBJZ2IgJxN3c-34" edge="1">
          <mxGeometry relative="1" as="geometry">
            <mxPoint x="-651" y="113" as="targetPoint" />
          </mxGeometry>
        </mxCell>
        <mxCell id="16RojRVPIBJZ2IgJxN3c-43" style="edgeStyle=orthogonalEdgeStyle;rounded=0;orthogonalLoop=1;jettySize=auto;html=1;exitX=1;exitY=0.5;exitDx=0;exitDy=0;entryX=0.5;entryY=0;entryDx=0;entryDy=0;dashed=1;endArrow=openThin;endFill=0;endSize=10;" parent="1" source="aag7jgjiEj0INCfYPcsb-31" target="16RojRVPIBJZ2IgJxN3c-2" edge="1">
          <mxGeometry relative="1" as="geometry" />
        </mxCell>
        <mxCell id="16RojRVPIBJZ2IgJxN3c-44" style="edgeStyle=orthogonalEdgeStyle;rounded=0;orthogonalLoop=1;jettySize=auto;html=1;exitX=0;exitY=0.5;exitDx=0;exitDy=0;entryX=0;entryY=0.5;entryDx=0;entryDy=0;dashed=1;endArrow=openThin;endFill=0;endSize=10;" parent="1" source="bCanyIzfgJM5BBmZHwuw-8" target="16RojRVPIBJZ2IgJxN3c-5" edge="1">
          <mxGeometry relative="1" as="geometry" />
        </mxCell>
        <mxCell id="HQizx2PiDJFyjuPkQ8Zz-1" value="wirelessLink" style="swimlane;fontStyle=1;align=center;verticalAlign=top;childLayout=stackLayout;horizontal=1;startSize=26;horizontalStack=0;resizeParent=1;resizeParentMax=0;resizeLast=0;collapsible=1;marginBottom=0;" parent="1" vertex="1">
          <mxGeometry x="114" y="103" width="160" height="138" as="geometry" />
        </mxCell>
        <mxCell id="HQizx2PiDJFyjuPkQ8Zz-2" value="+ propagationModel: string" style="text;strokeColor=none;fillColor=none;align=left;verticalAlign=top;spacingLeft=4;spacingRight=4;overflow=hidden;rotatable=0;points=[[0,0.5],[1,0.5]];portConstraint=eastwest;" parent="HQizx2PiDJFyjuPkQ8Zz-1" vertex="1">
          <mxGeometry y="26" width="160" height="26" as="geometry" />
        </mxCell>
        <mxCell id="HQizx2PiDJFyjuPkQ8Zz-4" value="" style="line;strokeWidth=1;fillColor=none;align=left;verticalAlign=middle;spacingTop=-1;spacingLeft=3;spacingRight=3;rotatable=0;labelPosition=right;points=[];portConstraint=eastwest;" parent="HQizx2PiDJFyjuPkQ8Zz-1" vertex="1">
          <mxGeometry y="52" width="160" height="8" as="geometry" />
        </mxCell>
        <mxCell id="HQizx2PiDJFyjuPkQ8Zz-5" value="+ getDelay()" style="text;strokeColor=none;fillColor=none;align=left;verticalAlign=top;spacingLeft=4;spacingRight=4;overflow=hidden;rotatable=0;points=[[0,0.5],[1,0.5]];portConstraint=eastwest;" parent="HQizx2PiDJFyjuPkQ8Zz-1" vertex="1">
          <mxGeometry y="60" width="160" height="26" as="geometry" />
        </mxCell>
        <mxCell id="HQizx2PiDJFyjuPkQ8Zz-6" value="+ getBandwidth()" style="text;strokeColor=none;fillColor=none;align=left;verticalAlign=top;spacingLeft=4;spacingRight=4;overflow=hidden;rotatable=0;points=[[0,0.5],[1,0.5]];portConstraint=eastwest;" parent="HQizx2PiDJFyjuPkQ8Zz-1" vertex="1">
          <mxGeometry y="86" width="160" height="26" as="geometry" />
        </mxCell>
        <mxCell id="HQizx2PiDJFyjuPkQ8Zz-7" value="+ getPacketLoss()" style="text;strokeColor=none;fillColor=none;align=left;verticalAlign=top;spacingLeft=4;spacingRight=4;overflow=hidden;rotatable=0;points=[[0,0.5],[1,0.5]];portConstraint=eastwest;" parent="HQizx2PiDJFyjuPkQ8Zz-1" vertex="1">
          <mxGeometry y="112" width="160" height="26" as="geometry" />
        </mxCell>
        <mxCell id="HQizx2PiDJFyjuPkQ8Zz-8" style="edgeStyle=orthogonalEdgeStyle;rounded=0;orthogonalLoop=1;jettySize=auto;html=1;exitX=0;exitY=0.5;exitDx=0;exitDy=0;endArrow=none;endFill=0;dashed=1;" parent="1" source="HQizx2PiDJFyjuPkQ8Zz-5" edge="1">
          <mxGeometry relative="1" as="geometry">
            <mxPoint x="68.66673278808594" y="176" as="targetPoint" />
          </mxGeometry>
        </mxCell>
        <mxCell id="HQizx2PiDJFyjuPkQ8Zz-19" style="edgeStyle=orthogonalEdgeStyle;rounded=0;orthogonalLoop=1;jettySize=auto;html=1;exitX=0;exitY=0.5;exitDx=0;exitDy=0;entryX=1;entryY=0.5;entryDx=0;entryDy=0;endArrow=openThin;endFill=0;endSize=10;" parent="1" source="bCanyIzfgJM5BBmZHwuw-44" target="aag7jgjiEj0INCfYPcsb-37" edge="1">
          <mxGeometry relative="1" as="geometry" />
        </mxCell>
        <mxCell id="HQizx2PiDJFyjuPkQ8Zz-11" value="interface" style="swimlane;fontStyle=1;align=center;verticalAlign=top;childLayout=stackLayout;horizontal=1;startSize=26;horizontalStack=0;resizeParent=1;resizeParentMax=0;resizeLast=0;collapsible=1;marginBottom=0;" parent="1" vertex="1">
          <mxGeometry x="-123" y="207" width="144" height="190" as="geometry" />
        </mxCell>
        <mxCell id="HQizx2PiDJFyjuPkQ8Zz-12" value="+ id: string" style="text;strokeColor=none;fillColor=none;align=left;verticalAlign=top;spacingLeft=4;spacingRight=4;overflow=hidden;rotatable=0;points=[[0,0.5],[1,0.5]];portConstraint=eastwest;" parent="HQizx2PiDJFyjuPkQ8Zz-11" vertex="1">
          <mxGeometry y="26" width="144" height="26" as="geometry" />
        </mxCell>
        <mxCell id="HQizx2PiDJFyjuPkQ8Zz-13" value="+ ip: string" style="text;strokeColor=none;fillColor=none;align=left;verticalAlign=top;spacingLeft=4;spacingRight=4;overflow=hidden;rotatable=0;points=[[0,0.5],[1,0.5]];portConstraint=eastwest;" parent="HQizx2PiDJFyjuPkQ8Zz-11" vertex="1">
          <mxGeometry y="52" width="144" height="26" as="geometry" />
        </mxCell>
        <mxCell id="HQizx2PiDJFyjuPkQ8Zz-14" value="+ netmask: int" style="text;strokeColor=none;fillColor=none;align=left;verticalAlign=top;spacingLeft=4;spacingRight=4;overflow=hidden;rotatable=0;points=[[0,0.5],[1,0.5]];portConstraint=eastwest;" parent="HQizx2PiDJFyjuPkQ8Zz-11" vertex="1">
          <mxGeometry y="78" width="144" height="26" as="geometry" />
        </mxCell>
        <mxCell id="HQizx2PiDJFyjuPkQ8Zz-15" value="+ subnet: string" style="text;strokeColor=none;fillColor=none;align=left;verticalAlign=top;spacingLeft=4;spacingRight=4;overflow=hidden;rotatable=0;points=[[0,0.5],[1,0.5]];portConstraint=eastwest;" parent="HQizx2PiDJFyjuPkQ8Zz-11" vertex="1">
          <mxGeometry y="104" width="144" height="26" as="geometry" />
        </mxCell>
        <mxCell id="HQizx2PiDJFyjuPkQ8Zz-16" value="" style="line;strokeWidth=1;fillColor=none;align=left;verticalAlign=middle;spacingTop=-1;spacingLeft=3;spacingRight=3;rotatable=0;labelPosition=right;points=[];portConstraint=eastwest;" parent="HQizx2PiDJFyjuPkQ8Zz-11" vertex="1">
          <mxGeometry y="130" width="144" height="8" as="geometry" />
        </mxCell>
        <mxCell id="HQizx2PiDJFyjuPkQ8Zz-17" value="+ changeState()" style="text;strokeColor=none;fillColor=none;align=left;verticalAlign=top;spacingLeft=4;spacingRight=4;overflow=hidden;rotatable=0;points=[[0,0.5],[1,0.5]];portConstraint=eastwest;" parent="HQizx2PiDJFyjuPkQ8Zz-11" vertex="1">
          <mxGeometry y="138" width="144" height="26" as="geometry" />
        </mxCell>
        <mxCell id="HQizx2PiDJFyjuPkQ8Zz-18" value="+ switchMode()" style="text;strokeColor=none;fillColor=none;align=left;verticalAlign=top;spacingLeft=4;spacingRight=4;overflow=hidden;rotatable=0;points=[[0,0.5],[1,0.5]];portConstraint=eastwest;" parent="HQizx2PiDJFyjuPkQ8Zz-11" vertex="1">
          <mxGeometry y="164" width="144" height="26" as="geometry" />
        </mxCell>
        <mxCell id="HQizx2PiDJFyjuPkQ8Zz-21" style="edgeStyle=orthogonalEdgeStyle;rounded=0;orthogonalLoop=1;jettySize=auto;html=1;exitX=0;exitY=0.5;exitDx=0;exitDy=0;entryX=1;entryY=0.5;entryDx=0;entryDy=0;endArrow=diamondThin;endFill=1;endSize=10;" parent="1" source="HQizx2PiDJFyjuPkQ8Zz-14" target="aag7jgjiEj0INCfYPcsb-38" edge="1">
          <mxGeometry relative="1" as="geometry" />
        </mxCell>
      </root>
    </mxGraphModel>
  </diagram>
  <diagram id="XvFTxGKyfkWsKt1XvAgG" name="网络控制模块uml时序图">
    <mxGraphModel dx="1773" dy="467" grid="1" gridSize="10" guides="1" tooltips="1" connect="1" arrows="1" fold="1" page="1" pageScale="1" pageWidth="827" pageHeight="1169" math="0" shadow="0">
      <root>
        <mxCell id="mgG8Qobv6Ey2WXSJ_PXp-0" />
        <mxCell id="mgG8Qobv6Ey2WXSJ_PXp-1" parent="mgG8Qobv6Ey2WXSJ_PXp-0" />
        <mxCell id="mgG8Qobv6Ey2WXSJ_PXp-2" value="smartPhone" style="shape=umlLifeline;perimeter=lifelinePerimeter;whiteSpace=wrap;html=1;container=1;collapsible=0;recursiveResize=0;outlineConnect=0;rounded=1;shadow=0;comic=0;labelBackgroundColor=none;strokeColor=#000000;strokeWidth=1;fillColor=#FFFFFF;fontFamily=Verdana;fontSize=12;fontColor=#000000;align=center;" parent="mgG8Qobv6Ey2WXSJ_PXp-1" vertex="1">
          <mxGeometry x="16" y="80" width="94" height="580" as="geometry" />
        </mxCell>
        <mxCell id="mgG8Qobv6Ey2WXSJ_PXp-3" value="" style="html=1;points=[];perimeter=orthogonalPerimeter;rounded=0;shadow=0;comic=0;labelBackgroundColor=none;strokeColor=#000000;strokeWidth=1;fillColor=#FFFFFF;fontFamily=Verdana;fontSize=12;fontColor=#000000;align=center;" parent="mgG8Qobv6Ey2WXSJ_PXp-2" vertex="1">
          <mxGeometry x="42" y="200" width="10" height="60" as="geometry" />
        </mxCell>
        <mxCell id="mgG8Qobv6Ey2WXSJ_PXp-13" value="JobScheduler" style="shape=umlLifeline;perimeter=lifelinePerimeter;whiteSpace=wrap;html=1;container=1;collapsible=0;recursiveResize=0;outlineConnect=0;rounded=1;shadow=0;comic=0;labelBackgroundColor=none;strokeColor=#000000;strokeWidth=1;fillColor=#FFFFFF;fontFamily=Verdana;fontSize=12;fontColor=#000000;align=center;" parent="mgG8Qobv6Ey2WXSJ_PXp-1" vertex="1">
          <mxGeometry x="-100" y="80" width="100" height="580" as="geometry" />
        </mxCell>
        <mxCell id="mgG8Qobv6Ey2WXSJ_PXp-14" value="" style="html=1;points=[];perimeter=orthogonalPerimeter;rounded=0;shadow=0;comic=0;labelBackgroundColor=none;strokeColor=#000000;strokeWidth=1;fillColor=#FFFFFF;fontFamily=Verdana;fontSize=12;fontColor=#000000;align=center;" parent="mgG8Qobv6Ey2WXSJ_PXp-13" vertex="1">
          <mxGeometry x="45" y="100" width="10" height="470" as="geometry" />
        </mxCell>
        <mxCell id="mgG8Qobv6Ey2WXSJ_PXp-20" value="add_jobs()" style="html=1;verticalAlign=bottom;endArrow=block;labelBackgroundColor=none;fontFamily=Verdana;fontSize=12;edgeStyle=orthogonalEdgeStyle;elbow=vertical;exitX=1.1;exitY=0.006;exitDx=0;exitDy=0;exitPerimeter=0;curved=1;" parent="mgG8Qobv6Ey2WXSJ_PXp-13" source="mgG8Qobv6Ey2WXSJ_PXp-14" target="mgG8Qobv6Ey2WXSJ_PXp-13" edge="1">
          <mxGeometry relative="1" as="geometry">
            <mxPoint x="320" y="110" as="sourcePoint" />
            <Array as="points">
              <mxPoint x="110" y="103" />
              <mxPoint x="110" y="130" />
            </Array>
          </mxGeometry>
        </mxCell>
        <mxCell id="OykFPzXzKbIm3ejdVck1-0" value="" style="endArrow=classic;html=1;entryX=1.1;entryY=0.187;entryDx=0;entryDy=0;entryPerimeter=0;exitX=1.3;exitY=0.115;exitDx=0;exitDy=0;exitPerimeter=0;edgeStyle=orthogonalEdgeStyle;curved=1;" edge="1" parent="mgG8Qobv6Ey2WXSJ_PXp-13" source="mgG8Qobv6Ey2WXSJ_PXp-14" target="mgG8Qobv6Ey2WXSJ_PXp-14">
          <mxGeometry width="50" height="50" relative="1" as="geometry">
            <mxPoint x="50" y="220" as="sourcePoint" />
            <mxPoint x="100" y="170" as="targetPoint" />
            <Array as="points">
              <mxPoint x="160" y="170" />
            </Array>
          </mxGeometry>
        </mxCell>
        <mxCell id="OykFPzXzKbIm3ejdVck1-1" value="Wait()" style="text;html=1;align=center;verticalAlign=middle;resizable=0;points=[];" vertex="1" connectable="0" parent="OykFPzXzKbIm3ejdVck1-0">
          <mxGeometry x="-0.5221" y="-8" relative="1" as="geometry">
            <mxPoint as="offset" />
          </mxGeometry>
        </mxCell>
        <mxCell id="mgG8Qobv6Ey2WXSJ_PXp-23" value="return info" style="html=1;verticalAlign=bottom;endArrow=open;dashed=1;endSize=8;labelBackgroundColor=none;fontFamily=Verdana;fontSize=12;edgeStyle=elbowEdgeStyle;elbow=vertical;entryX=1.3;entryY=0.34;entryDx=0;entryDy=0;entryPerimeter=0;" parent="mgG8Qobv6Ey2WXSJ_PXp-1" target="mgG8Qobv6Ey2WXSJ_PXp-14" edge="1">
          <mxGeometry relative="1" as="geometry">
            <mxPoint x="88" y="313" as="targetPoint" />
            <Array as="points">
              <mxPoint x="-40" y="340" />
              <mxPoint x="100" y="310" />
              <mxPoint x="217" y="304" />
            </Array>
            <mxPoint x="60" y="340" as="sourcePoint" />
          </mxGeometry>
        </mxCell>
        <mxCell id="mgG8Qobv6Ey2WXSJ_PXp-25" value="net" style="shape=umlLifeline;perimeter=lifelinePerimeter;whiteSpace=wrap;html=1;container=1;collapsible=0;recursiveResize=0;outlineConnect=0;rounded=1;shadow=0;comic=0;labelBackgroundColor=none;strokeColor=#000000;strokeWidth=1;fillColor=#FFFFFF;fontFamily=Verdana;fontSize=12;fontColor=#000000;align=center;" parent="mgG8Qobv6Ey2WXSJ_PXp-1" vertex="1">
          <mxGeometry x="123.5" y="80" width="100" height="580" as="geometry" />
        </mxCell>
        <mxCell id="mgG8Qobv6Ey2WXSJ_PXp-26" value="" style="html=1;points=[];perimeter=orthogonalPerimeter;rounded=0;shadow=0;comic=0;labelBackgroundColor=none;strokeColor=#000000;strokeWidth=1;fillColor=#FFFFFF;fontFamily=Verdana;fontSize=12;fontColor=#000000;align=center;" parent="mgG8Qobv6Ey2WXSJ_PXp-25" vertex="1">
          <mxGeometry x="45" y="210" width="10" height="80" as="geometry" />
        </mxCell>
        <mxCell id="mgG8Qobv6Ey2WXSJ_PXp-27" value="dispatch" style="html=1;verticalAlign=bottom;endArrow=block;labelBackgroundColor=none;fontFamily=Verdana;fontSize=12;edgeStyle=elbowEdgeStyle;elbow=vertical;" parent="mgG8Qobv6Ey2WXSJ_PXp-1" edge="1">
          <mxGeometry relative="1" as="geometry">
            <mxPoint x="69" y="300" as="sourcePoint" />
            <mxPoint x="170" y="300" as="targetPoint" />
            <Array as="points">
              <mxPoint x="80" y="300" />
            </Array>
          </mxGeometry>
        </mxCell>
        <mxCell id="mgG8Qobv6Ey2WXSJ_PXp-37" value="return info" style="html=1;verticalAlign=bottom;endArrow=open;dashed=1;endSize=8;labelBackgroundColor=none;fontFamily=Verdana;fontSize=12;edgeStyle=elbowEdgeStyle;elbow=vertical;" parent="mgG8Qobv6Ey2WXSJ_PXp-1" edge="1">
          <mxGeometry x="-0.0244" relative="1" as="geometry">
            <mxPoint x="172" y="640" as="targetPoint" />
            <Array as="points">
              <mxPoint x="265" y="640" />
              <mxPoint x="295" y="640" />
            </Array>
            <mxPoint x="272.5" y="640" as="sourcePoint" />
            <mxPoint as="offset" />
          </mxGeometry>
        </mxCell>
        <mxCell id="mgG8Qobv6Ey2WXSJ_PXp-38" value="ovsDriver" style="shape=umlLifeline;perimeter=lifelinePerimeter;whiteSpace=wrap;html=1;container=1;collapsible=0;recursiveResize=0;outlineConnect=0;rounded=1;shadow=0;comic=0;labelBackgroundColor=none;strokeColor=#000000;strokeWidth=1;fillColor=#FFFFFF;fontFamily=Verdana;fontSize=12;fontColor=#000000;align=center;" parent="mgG8Qobv6Ey2WXSJ_PXp-1" vertex="1">
          <mxGeometry x="235.5" y="80" width="100" height="580" as="geometry" />
        </mxCell>
        <mxCell id="mgG8Qobv6Ey2WXSJ_PXp-39" value="" style="rounded=0;whiteSpace=wrap;html=1;" parent="mgG8Qobv6Ey2WXSJ_PXp-38" vertex="1">
          <mxGeometry x="25" y="420" width="47" height="70" as="geometry" />
        </mxCell>
        <mxCell id="mgG8Qobv6Ey2WXSJ_PXp-40" value="" style="html=1;points=[];perimeter=orthogonalPerimeter;rounded=0;shadow=0;comic=0;labelBackgroundColor=none;strokeColor=#000000;strokeWidth=1;fillColor=#FFFFFF;fontFamily=Verdana;fontSize=12;fontColor=#000000;align=center;" parent="mgG8Qobv6Ey2WXSJ_PXp-38" vertex="1">
          <mxGeometry x="43" y="290" width="10" height="270" as="geometry" />
        </mxCell>
        <mxCell id="pYxnwbQmXpuoiznXTNms-0" value="dispatch" style="html=1;verticalAlign=bottom;endArrow=block;labelBackgroundColor=none;fontFamily=Verdana;fontSize=12;edgeStyle=elbowEdgeStyle;elbow=vertical;" edge="1" parent="mgG8Qobv6Ey2WXSJ_PXp-1">
          <mxGeometry relative="1" as="geometry">
            <mxPoint x="-40" y="280" as="sourcePoint" />
            <mxPoint x="58" y="280" as="targetPoint" />
          </mxGeometry>
        </mxCell>
        <mxCell id="pYxnwbQmXpuoiznXTNms-1" value="dispatch" style="html=1;verticalAlign=bottom;endArrow=block;labelBackgroundColor=none;fontFamily=Verdana;fontSize=12;edgeStyle=elbowEdgeStyle;elbow=vertical;" edge="1" parent="mgG8Qobv6Ey2WXSJ_PXp-1">
          <mxGeometry relative="1" as="geometry">
            <mxPoint x="180" y="360" as="sourcePoint" />
            <mxPoint x="281" y="360" as="targetPoint" />
            <Array as="points">
              <mxPoint x="191" y="360" />
            </Array>
          </mxGeometry>
        </mxCell>
      </root>
    </mxGraphModel>
  </diagram>
  <diagram id="RAPhGmmn2fUzFXncwZ6r" name="任务调度模块_类图">
    <mxGraphModel dx="1773" dy="467" grid="1" gridSize="10" guides="1" tooltips="1" connect="1" arrows="1" fold="1" page="1" pageScale="1" pageWidth="827" pageHeight="1169" math="0" shadow="0">
      <root>
        <mxCell id="VHfSp9vhrLl0njrOSWyZ-0" />
        <mxCell id="VHfSp9vhrLl0njrOSWyZ-1" parent="VHfSp9vhrLl0njrOSWyZ-0" />
        <mxCell id="i-k3V9zCT8V0PcLS7QjV-0" value="JobScheduler" style="swimlane;fontStyle=1;align=center;verticalAlign=top;childLayout=stackLayout;horizontal=1;startSize=26;horizontalStack=0;resizeParent=1;resizeParentMax=0;resizeLast=0;collapsible=1;marginBottom=0;" vertex="1" parent="VHfSp9vhrLl0njrOSWyZ-1">
          <mxGeometry x="-573" y="140" width="160" height="138" as="geometry" />
        </mxCell>
        <mxCell id="i-k3V9zCT8V0PcLS7QjV-5" value="" style="line;strokeWidth=1;fillColor=none;align=left;verticalAlign=middle;spacingTop=-1;spacingLeft=3;spacingRight=3;rotatable=0;labelPosition=right;points=[];portConstraint=eastwest;" vertex="1" parent="i-k3V9zCT8V0PcLS7QjV-0">
          <mxGeometry y="26" width="160" height="8" as="geometry" />
        </mxCell>
        <mxCell id="i-k3V9zCT8V0PcLS7QjV-6" value="+ createNode()" style="text;strokeColor=none;fillColor=none;align=left;verticalAlign=top;spacingLeft=4;spacingRight=4;overflow=hidden;rotatable=0;points=[[0,0.5],[1,0.5]];portConstraint=eastwest;" vertex="1" parent="i-k3V9zCT8V0PcLS7QjV-0">
          <mxGeometry y="34" width="160" height="26" as="geometry" />
        </mxCell>
        <mxCell id="i-k3V9zCT8V0PcLS7QjV-7" value="+ hotspot()" style="text;strokeColor=none;fillColor=none;align=left;verticalAlign=top;spacingLeft=4;spacingRight=4;overflow=hidden;rotatable=0;points=[[0,0.5],[1,0.5]];portConstraint=eastwest;" vertex="1" parent="i-k3V9zCT8V0PcLS7QjV-0">
          <mxGeometry y="60" width="160" height="26" as="geometry" />
        </mxCell>
        <mxCell id="i-k3V9zCT8V0PcLS7QjV-8" value="+ mobileData()" style="text;strokeColor=none;fillColor=none;align=left;verticalAlign=top;spacingLeft=4;spacingRight=4;overflow=hidden;rotatable=0;points=[[0,0.5],[1,0.5]];portConstraint=eastwest;" vertex="1" parent="i-k3V9zCT8V0PcLS7QjV-0">
          <mxGeometry y="86" width="160" height="26" as="geometry" />
        </mxCell>
        <mxCell id="i-k3V9zCT8V0PcLS7QjV-9" value="+ wifi()" style="text;strokeColor=none;fillColor=none;align=left;verticalAlign=top;spacingLeft=4;spacingRight=4;overflow=hidden;rotatable=0;points=[[0,0.5],[1,0.5]];portConstraint=eastwest;" vertex="1" parent="i-k3V9zCT8V0PcLS7QjV-0">
          <mxGeometry y="112" width="160" height="26" as="geometry" />
        </mxCell>
      </root>
    </mxGraphModel>
  </diagram>
</mxfile>
